<?xml version="1.0" encoding="UTF-8" standalone="no"?>
<svg
   xmlns:dc="http://purl.org/dc/elements/1.1/"
   xmlns:cc="http://creativecommons.org/ns#"
   xmlns:rdf="http://www.w3.org/1999/02/22-rdf-syntax-ns#"
   xmlns:svg="http://www.w3.org/2000/svg"
   xmlns="http://www.w3.org/2000/svg"
   xmlns:xlink="http://www.w3.org/1999/xlink"
   xmlns:sodipodi="http://sodipodi.sourceforge.net/DTD/sodipodi-0.dtd"
   xmlns:inkscape="http://www.inkscape.org/namespaces/inkscape"
   class="card"
   face="AS"
   height="3.5in"
   preserveAspectRatio="none"
   viewBox="-120 -168 240 336"
   width="2.5in"
   version="1.1"
   id="svg479"
   sodipodi:docname="AS.svg"
   inkscape:version="0.92.5 (2060ec1f9f, 2020-04-08)">
  <metadata
     id="metadata485">
    <rdf:RDF>
      <cc:Work
         rdf:about="">
        <dc:format>image/svg+xml</dc:format>
        <dc:type
           rdf:resource="http://purl.org/dc/dcmitype/StillImage" />
      </cc:Work>
    </rdf:RDF>
  </metadata>
  <defs
     id="defs483" />
  <sodipodi:namedview
     pagecolor="#ffffff"
     bordercolor="#666666"
     borderopacity="1"
     objecttolerance="10"
     gridtolerance="10"
     guidetolerance="10"
     inkscape:pageopacity="0"
     inkscape:pageshadow="2"
     inkscape:window-width="1920"
     inkscape:window-height="1016"
     id="namedview481"
     showgrid="false"
     inkscape:zoom="2.4940476"
     inkscape:cx="120"
     inkscape:cy="168"
     inkscape:window-x="0"
     inkscape:window-y="27"
     inkscape:window-maximized="1"
     inkscape:current-layer="svg479" />
  <symbol
     id="VSA"
     viewBox="-500 -500 1000 1000"
     preserveAspectRatio="xMinYMid">
    <path
       d="M-270 460L-110 460M-200 450L0 -460L200 450M110 460L270 460M-120 130L120 130"
       stroke="black"
       stroke-width="80"
       stroke-linecap="square"
       stroke-miterlimit="1.5"
       fill="none"
       id="path449" />
  </symbol>
  <symbol
     id="SSA"
     viewBox="-600 -600 1200 1200"
     preserveAspectRatio="xMinYMid">
    <path
       d="M0 -500C100 -250 355 -100 355 185A150 150 0 0 1 55 185A10 10 0 0 0 35 185C35 385 85 400 130 500L-130 500C-85 400 -35 385 -35 185A10 10 0 0 0 -55 185A150 150 0 0 1 -355 185C-355 -100 -100 -250 0 -500Z"
       id="path452" />
  </symbol>
  <rect
     width="239"
     height="335"
     x="-119.5"
     y="-167.5"
     rx="12"
     ry="12"
     fill="white"
     stroke="black"
     id="rect455" />
  <use
     xlink:href="#SSA"
     fill="black"
     height="164.8"
     x="-82.4"
     y="-82.4"
     stroke="black"
     stroke-width="100"
     stroke-dasharray="100,100"
     stroke-linecap="round"
     id="use457" />
  <use
     xlink:href="#SSA"
     fill="black"
     height="164.8"
     x="-82.4"
     y="-82.4"
     stroke="white"
     stroke-width="50"
     id="use459" />
  <use
     xlink:href="#SSA"
     fill="black"
     height="164.8"
     x="-82.4"
     y="-82.4"
     id="use461" />
  <use
     xlink:href="#VSA"
     height="32"
     x="-114.4"
     y="-156"
     id="use469" />
  <use
     xlink:href="#SSA"
     fill="black"
     height="26.769"
     x="-111.784"
     y="-119"
     id="use471" />
  <g
     transform="rotate(180)"
     id="g477">
    <use
       xlink:href="#VSA"
       height="32"
       x="-114.4"
       y="-156"
       id="use473" />
    <use
       xlink:href="#SSA"
       fill="black"
       height="26.769"
       x="-111.784"
       y="-119"
       id="use475" />
  </g>
</svg>
